<svg xmlns="http://www.w3.org/2000/svg" viewBox="0 0 420 240" width="420" height="240">
<rect x="0" y="0" width="420" height="240" rx="14" fill="#FFFFFF"/>
<polyline points="50.0,114.0 50.0,60.0 135.0,60.0" fill="none" stroke="#1B2550" stroke-width="3" stroke-linecap="round" stroke-linejoin="round"/>
<polyline points="185.0,60.0 255.0,60.0" fill="none" stroke="#1B2550" stroke-width="3" stroke-linecap="round" stroke-linejoin="round"/>
<polyline points="305.0,60.0 380.0,60.0 380.0,180.0 50.0,180.0 50.0,126.0" fill="none" stroke="#1B2550" stroke-width="3" stroke-linecap="round" stroke-linejoin="round"/>
<rect x="30.0" y="113.0" width="40.0" height="14.0" rx="0" fill="#FFFFFF" stroke="#FFFFFF" stroke-width="0"/>
<line x1="33.0" y1="114.0" x2="67.0" y2="114.0" stroke="#1B2550" stroke-width="3" stroke-linecap="round"/>
<line x1="41.0" y1="126.0" x2="59.0" y2="126.0" stroke="#1B2550" stroke-width="6" stroke-linecap="round"/>
<polyline points="75.0,104.1 75.0,109.9" fill="none" stroke="#1B2550" stroke-width="1.40" stroke-linecap="round" stroke-linejoin="round"/>
<polyline points="72.1,107.0 77.9,107.0" fill="none" stroke="#1B2550" stroke-width="1.40" stroke-linecap="round" stroke-linejoin="round"/>
<rect x="135.0" y="50.0" width="50.0" height="20.0" rx="3" fill="#FFFFFF" stroke="#1B2550" stroke-width="3"/><polyline points="154.1,65.0 154.1,55.0 159.1,55.0 161.3,56.4 161.3,58.6 159.1,60.0 154.1,60.0" fill="none" stroke="#1B2550" stroke-width="1.40" stroke-linecap="round" stroke-linejoin="round"/>
<polyline points="158.4,60.0 161.3,65.0" fill="none" stroke="#1B2550" stroke-width="1.40" stroke-linecap="round" stroke-linejoin="round"/>
<polyline points="163.9,61.8 165.2,60.5 165.2,66.7" fill="none" stroke="#1B2550" stroke-width="1.20" stroke-linecap="round" stroke-linejoin="round"/>
<polyline points="163.9,66.7 166.5,66.7" fill="none" stroke="#1B2550" stroke-width="1.20" stroke-linecap="round" stroke-linejoin="round"/>
<rect x="255.0" y="50.0" width="50.0" height="20.0" rx="3" fill="#FFFFFF" stroke="#1B2550" stroke-width="3"/><polyline points="273.7,65.0 273.7,55.0 278.7,55.0 280.8,56.4 280.8,58.6 278.7,60.0 273.7,60.0" fill="none" stroke="#1B2550" stroke-width="1.40" stroke-linecap="round" stroke-linejoin="round"/>
<polyline points="278.0,60.0 280.8,65.0" fill="none" stroke="#1B2550" stroke-width="1.40" stroke-linecap="round" stroke-linejoin="round"/>
<polyline points="282.6,61.8 283.4,60.5 286.1,60.5 287.0,61.4 287.0,62.7 282.6,66.7 287.0,66.7" fill="none" stroke="#1B2550" stroke-width="1.20" stroke-linecap="round" stroke-linejoin="round"/>
<polygon points="87.3,52.3 102.7,60.0 87.3,67.7" fill="#2F6FDB" stroke="#2F6FDB" stroke-width="1" stroke-linecap="round" stroke-linejoin="round"/>
<rect x="77.6" y="17.6" width="34.8" height="24.7" rx="12.35" fill="#DCE8FB" stroke="#2F6FDB" stroke-width="2"/><polyline points="84.6,26.3 86.5,23.5 92.0,23.5 93.9,25.4 93.9,28.1 84.6,36.5 93.9,36.5" fill="none" stroke="#2F6FDB" stroke-width="1.69" stroke-linecap="round" stroke-linejoin="round"/>
<polyline points="96.1,36.5 100.8,23.5 105.4,36.5" fill="none" stroke="#2F6FDB" stroke-width="1.69" stroke-linecap="round" stroke-linejoin="round"/>
<polyline points="98.0,31.9 103.5,31.9" fill="none" stroke="#2F6FDB" stroke-width="1.69" stroke-linecap="round" stroke-linejoin="round"/>
<polygon points="212.3,52.3 227.7,60.0 212.3,67.7" fill="#2F6FDB" stroke="#2F6FDB" stroke-width="1" stroke-linecap="round" stroke-linejoin="round"/>
<rect x="202.6" y="17.6" width="34.8" height="24.7" rx="12.35" fill="#DCE8FB" stroke="#2F6FDB" stroke-width="2"/><polyline points="209.6,26.3 211.5,23.5 217.0,23.5 218.9,25.4 218.9,28.1 209.6,36.5 218.9,36.5" fill="none" stroke="#2F6FDB" stroke-width="1.69" stroke-linecap="round" stroke-linejoin="round"/>
<polyline points="221.1,36.5 225.8,23.5 230.4,36.5" fill="none" stroke="#2F6FDB" stroke-width="1.69" stroke-linecap="round" stroke-linejoin="round"/>
<polyline points="223.0,31.9 228.5,31.9" fill="none" stroke="#2F6FDB" stroke-width="1.69" stroke-linecap="round" stroke-linejoin="round"/>
<polygon points="327.3,52.3 342.7,60.0 327.3,67.7" fill="#2F6FDB" stroke="#2F6FDB" stroke-width="1" stroke-linecap="round" stroke-linejoin="round"/>
<rect x="317.6" y="17.6" width="34.8" height="24.7" rx="12.35" fill="#DCE8FB" stroke="#2F6FDB" stroke-width="2"/><polyline points="324.6,26.3 326.5,23.5 332.0,23.5 333.9,25.4 333.9,28.1 324.6,36.5 333.9,36.5" fill="none" stroke="#2F6FDB" stroke-width="1.69" stroke-linecap="round" stroke-linejoin="round"/>
<polyline points="336.1,36.5 340.8,23.5 345.4,36.5" fill="none" stroke="#2F6FDB" stroke-width="1.69" stroke-linecap="round" stroke-linejoin="round"/>
<polyline points="338.0,31.9 343.5,31.9" fill="none" stroke="#2F6FDB" stroke-width="1.69" stroke-linecap="round" stroke-linejoin="round"/>
<polygon points="222.7,172.3 207.3,180.0 222.7,187.7" fill="#2F6FDB" stroke="#2F6FDB" stroke-width="1" stroke-linecap="round" stroke-linejoin="round"/>
<rect x="197.6" y="195.7" width="34.8" height="24.7" rx="12.35" fill="#DCE8FB" stroke="#2F6FDB" stroke-width="2"/><polyline points="204.6,204.3 206.5,201.5 212.0,201.5 213.9,203.4 213.9,206.1 204.6,214.5 213.9,214.5" fill="none" stroke="#2F6FDB" stroke-width="1.69" stroke-linecap="round" stroke-linejoin="round"/>
<polyline points="216.1,214.5 220.8,201.5 225.4,214.5" fill="none" stroke="#2F6FDB" stroke-width="1.69" stroke-linecap="round" stroke-linejoin="round"/>
<polyline points="218.0,209.9 223.5,209.9" fill="none" stroke="#2F6FDB" stroke-width="1.69" stroke-linecap="round" stroke-linejoin="round"/>
</svg>
