<svg xmlns="http://www.w3.org/2000/svg" viewBox="0 0 420 240" width="420" height="240">
<rect x="0" y="0" width="420" height="240" rx="14" fill="#FFFFFF"/>
<polyline points="28.0,100.0 68.0,100.0" fill="none" stroke="#1B2550" stroke-width="3" stroke-linecap="round" stroke-linejoin="round"/>
<polyline points="118.0,100.0 148.0,100.0" fill="none" stroke="#1B2550" stroke-width="3" stroke-linecap="round" stroke-linejoin="round"/>
<polyline points="198.0,100.0 232.0,100.0" fill="none" stroke="#1B2550" stroke-width="3" stroke-linecap="round" stroke-linejoin="round"/>
<rect x="68.0" y="90.0" width="50.0" height="20.0" rx="3" fill="#FFFFFF" stroke="#1B2550" stroke-width="3"/><polyline points="84.2,95.3 86.6,94.5 90.5,94.5 92.1,96.1 92.1,98.4 90.5,100.0 87.3,100.0" fill="none" stroke="#1B2550" stroke-width="1.43" stroke-linecap="round" stroke-linejoin="round"/>
<polyline points="90.5,100.0 92.1,101.6 92.1,103.9 90.5,105.5 85.8,105.5 84.2,104.7" fill="none" stroke="#1B2550" stroke-width="1.43" stroke-linecap="round" stroke-linejoin="round"/>
<polyline points="93.9,105.5 96.3,105.5 96.3,103.9 93.9,101.6 93.9,97.6 96.3,94.5 99.4,94.5 101.8,97.6 101.8,101.6 99.4,103.9 99.4,105.5 101.8,105.5" fill="none" stroke="#1B2550" stroke-width="1.43" stroke-linecap="round" stroke-linejoin="round"/>
<rect x="148.0" y="90.0" width="50.0" height="20.0" rx="3" fill="#FFFFFF" stroke="#1B2550" stroke-width="3"/><polyline points="172.1,94.5 165.0,94.5 164.2,99.2 169.7,99.2 172.1,100.8 172.1,103.9 170.5,105.5 165.8,105.5 164.2,103.9" fill="none" stroke="#1B2550" stroke-width="1.43" stroke-linecap="round" stroke-linejoin="round"/>
<polyline points="173.9,105.5 176.3,105.5 176.3,103.9 173.9,101.6 173.9,97.6 176.3,94.5 179.4,94.5 181.8,97.6 181.8,101.6 179.4,103.9 179.4,105.5 181.8,105.5" fill="none" stroke="#1B2550" stroke-width="1.43" stroke-linecap="round" stroke-linejoin="round"/>
<circle cx="28.0" cy="100.0" r="5" fill="#1B2550"/>
<circle cx="232.0" cy="100.0" r="5" fill="#1B2550"/>
<polyline points="254.6,96.3 269.4,96.3" fill="none" stroke="#1B2550" stroke-width="4.06" stroke-linecap="round" stroke-linejoin="round"/>
<polyline points="254.6,103.7 269.4,103.7" fill="none" stroke="#1B2550" stroke-width="4.06" stroke-linecap="round" stroke-linejoin="round"/>
<polyline points="292.0,100.0 320.0,100.0" fill="none" stroke="#1B2550" stroke-width="3" stroke-linecap="round" stroke-linejoin="round"/>
<polyline points="380.0,100.0 400.0,100.0" fill="none" stroke="#1B2550" stroke-width="3" stroke-linecap="round" stroke-linejoin="round"/>
<rect x="320.0" y="88.0" width="60.0" height="24.0" rx="3" fill="#FFF3C4" stroke="#C99700" stroke-width="3"/><polyline points="341.5,93.5 347.0,93.5 348.9,95.4 348.9,98.1 347.0,100.0 341.5,100.0 339.6,98.1 339.6,95.4 341.5,93.5" fill="none" stroke="#1B2550" stroke-width="1.69" stroke-linecap="round" stroke-linejoin="round"/>
<polyline points="341.5,100.0 339.6,101.9 339.6,104.6 341.5,106.5 347.0,106.5 348.9,104.6 348.9,101.9 347.0,100.0" fill="none" stroke="#1B2550" stroke-width="1.69" stroke-linecap="round" stroke-linejoin="round"/>
<polyline points="351.1,106.5 353.9,106.5 353.9,104.6 351.1,101.9 351.1,97.2 353.9,93.5 357.6,93.5 360.4,97.2 360.4,101.9 357.6,104.6 357.6,106.5 360.4,106.5" fill="none" stroke="#1B2550" stroke-width="1.69" stroke-linecap="round" stroke-linejoin="round"/>
<circle cx="292.0" cy="100.0" r="5" fill="#1B2550"/>
<circle cx="400.0" cy="100.0" r="5" fill="#1B2550"/>
<polyline points="147.8,172.3 151.6,171.0 158.1,171.0 160.6,173.6 160.6,177.4 158.1,180.0 152.9,180.0" fill="none" stroke="#1B2550" stroke-width="2.34" stroke-linecap="round" stroke-linejoin="round"/>
<polyline points="158.1,180.0 160.6,182.6 160.6,186.4 158.1,189.0 150.3,189.0 147.8,187.7" fill="none" stroke="#1B2550" stroke-width="2.34" stroke-linecap="round" stroke-linejoin="round"/>
<polyline points="163.7,189.0 167.6,189.0 167.6,186.4 163.7,182.6 163.7,176.1 167.6,171.0 172.7,171.0 176.6,176.1 176.6,182.6 172.7,186.4 172.7,189.0 176.6,189.0" fill="none" stroke="#1B2550" stroke-width="2.34" stroke-linecap="round" stroke-linejoin="round"/>
<polyline points="186.1,174.9 186.1,185.1" fill="none" stroke="#8A93B0" stroke-width="2.34" stroke-linecap="round" stroke-linejoin="round"/>
<polyline points="180.9,180.0 191.2,180.0" fill="none" stroke="#8A93B0" stroke-width="2.34" stroke-linecap="round" stroke-linejoin="round"/>
<polyline points="208.5,171.0 196.9,171.0 195.6,178.7 204.6,178.7 208.5,181.3 208.5,186.4 205.9,189.0 198.2,189.0 195.6,186.4" fill="none" stroke="#1B2550" stroke-width="2.34" stroke-linecap="round" stroke-linejoin="round"/>
<polyline points="211.5,189.0 215.4,189.0 215.4,186.4 211.5,182.6 211.5,176.1 215.4,171.0 220.5,171.0 224.4,176.1 224.4,182.6 220.5,186.4 220.5,189.0 224.4,189.0" fill="none" stroke="#1B2550" stroke-width="2.34" stroke-linecap="round" stroke-linejoin="round"/>
<polyline points="228.8,177.4 239.1,177.4" fill="none" stroke="#8A93B0" stroke-width="2.34" stroke-linecap="round" stroke-linejoin="round"/>
<polyline points="228.8,182.6 239.1,182.6" fill="none" stroke="#8A93B0" stroke-width="2.34" stroke-linecap="round" stroke-linejoin="round"/>
<polyline points="246.0,171.0 253.7,171.0 256.3,173.6 256.3,177.4 253.7,180.0 246.0,180.0 243.4,177.4 243.4,173.6 246.0,171.0" fill="none" stroke="#C99700" stroke-width="2.34" stroke-linecap="round" stroke-linejoin="round"/>
<polyline points="246.0,180.0 243.4,182.6 243.4,186.4 246.0,189.0 253.7,189.0 256.3,186.4 256.3,182.6 253.7,180.0" fill="none" stroke="#C99700" stroke-width="2.34" stroke-linecap="round" stroke-linejoin="round"/>
<polyline points="259.4,189.0 263.2,189.0 263.2,186.4 259.4,182.6 259.4,176.1 263.2,171.0 268.4,171.0 272.2,176.1 272.2,182.6 268.4,186.4 268.4,189.0 272.2,189.0" fill="none" stroke="#C99700" stroke-width="2.34" stroke-linecap="round" stroke-linejoin="round"/>
</svg>
