<svg xmlns="http://www.w3.org/2000/svg" viewBox="0 0 200 150" width="200" height="150">
<rect x="0" y="0" width="200" height="150" rx="14" fill="#FFFFFF"/>
<circle cx="50.4" cy="70.0" r="28.0" fill="#FFFFFF" stroke="#1B2550" stroke-width="4.199999999999999"/>
<line x1="42.0" y1="57.4" x2="42.0" y2="82.6" stroke="#1B2550" stroke-width="4.199999999999999" stroke-linecap="round"/>
<line x1="58.8" y1="57.4" x2="58.8" y2="82.6" stroke="#1B2550" stroke-width="4.199999999999999" stroke-linecap="round"/>
<polyline points="107.6,40.6 89.6,40.6 89.6,65.8 107.6,65.8" fill="none" stroke="#1B2550" stroke-width="3.60" stroke-linecap="round" stroke-linejoin="round"/>
<polyline points="89.6,53.2 102.2,53.2" fill="none" stroke="#1B2550" stroke-width="3.60" stroke-linecap="round" stroke-linejoin="round"/>
<polyline points="89.6,79.6 93.2,74.2 104.0,74.2 107.6,77.8 107.6,83.2 89.6,99.4 107.6,99.4" fill="none" stroke="#1B2550" stroke-width="3.60" stroke-linecap="round" stroke-linejoin="round"/>
<polyline points="115.5,74.2 126.3,74.2 129.9,77.8 129.9,95.8 126.3,99.4 115.5,99.4 111.9,95.8 111.9,77.8 115.5,74.2" fill="none" stroke="#1B2550" stroke-width="3.60" stroke-linecap="round" stroke-linejoin="round"/>
<polyline points="134.2,99.4 143.2,74.2 152.2,99.4" fill="none" stroke="#1B2550" stroke-width="3.60" stroke-linecap="round" stroke-linejoin="round"/>
<polyline points="137.8,90.4 148.6,90.4" fill="none" stroke="#1B2550" stroke-width="3.60" stroke-linecap="round" stroke-linejoin="round"/>
<polyline points="89.6,113.2 93.2,107.8 104.0,107.8 107.6,111.4 107.6,116.8 89.6,133.0 107.6,133.0" fill="none" stroke="#1B2550" stroke-width="3.60" stroke-linecap="round" stroke-linejoin="round"/>
<polyline points="129.9,107.8 113.7,107.8 111.9,118.6 124.5,118.6 129.9,122.2 129.9,129.4 126.3,133.0 115.5,133.0 111.9,129.4" fill="none" stroke="#1B2550" stroke-width="3.60" stroke-linecap="round" stroke-linejoin="round"/>
<polyline points="137.8,107.8 148.6,107.8 152.2,111.4 152.2,129.4 148.6,133.0 137.8,133.0 134.2,129.4 134.2,111.4 137.8,107.8" fill="none" stroke="#1B2550" stroke-width="3.60" stroke-linecap="round" stroke-linejoin="round"/>
<polyline points="156.6,107.8 165.6,133.0 174.6,107.8" fill="none" stroke="#1B2550" stroke-width="3.60" stroke-linecap="round" stroke-linejoin="round"/>
</svg>
