<svg xmlns="http://www.w3.org/2000/svg" viewBox="0 0 420 214" width="420" height="214">
<rect x="0" y="0" width="420" height="214" rx="14" fill="#FFFFFF"/>
<circle cx="26.0" cy="34.0" r="11.0" fill="#FFF3C4" stroke="#C99700" stroke-width="2"/><polyline points="24.3,30.6 26.9,28.0 26.9,40.0" fill="none" stroke="#C99700" stroke-width="1.72" stroke-linecap="round" stroke-linejoin="round"/>
<polyline points="24.3,40.0 29.4,40.0" fill="none" stroke="#C99700" stroke-width="1.72" stroke-linecap="round" stroke-linejoin="round"/>
<line x1="56.0" y1="34.0" x2="396.0" y2="34.0" stroke="#1B2550" stroke-width="4.0" stroke-linecap="round"/>
<circle cx="26.0" cy="82.0" r="11.0" fill="#FFF3C4" stroke="#C99700" stroke-width="2"/><polyline points="21.7,78.6 23.4,76.0 28.6,76.0 30.3,77.7 30.3,80.3 21.7,88.0 30.3,88.0" fill="none" stroke="#C99700" stroke-width="1.72" stroke-linecap="round" stroke-linejoin="round"/>
<line x1="56.0" y1="82.0" x2="396.0" y2="82.0" stroke="#1B2550" stroke-width="4.0" stroke-linecap="round" stroke-dasharray="14,9"/>
<circle cx="26.0" cy="130.0" r="11.0" fill="#FFF3C4" stroke="#C99700" stroke-width="2"/><polyline points="21.7,124.9 24.3,124.0 28.6,124.0 30.3,125.7 30.3,128.3 28.6,130.0 25.1,130.0" fill="none" stroke="#C99700" stroke-width="1.72" stroke-linecap="round" stroke-linejoin="round"/>
<polyline points="28.6,130.0 30.3,131.7 30.3,134.3 28.6,136.0 23.4,136.0 21.7,135.1" fill="none" stroke="#C99700" stroke-width="1.72" stroke-linecap="round" stroke-linejoin="round"/>
<line x1="56.0" y1="130.0" x2="396.0" y2="130.0" stroke="#1B2550" stroke-width="4.0" stroke-linecap="round" stroke-dasharray="2,9"/>
<circle cx="26.0" cy="178.0" r="11.0" fill="#FFF3C4" stroke="#C99700" stroke-width="2"/><polyline points="27.7,184.0 27.7,172.0 21.7,180.6 30.3,180.6" fill="none" stroke="#C99700" stroke-width="1.72" stroke-linecap="round" stroke-linejoin="round"/>
<line x1="56.0" y1="178.0" x2="396.0" y2="178.0" stroke="#1B2550" stroke-width="4.0" stroke-linecap="round" stroke-dasharray="20,7,3,7"/>
</svg>
